Title:
The Grandmaster

Country:
China/Hong Kong, 2013

Language:
Cantonese, Mandarin

Subtitle:
English
 
Director:
Wong Kar Wai 

Writers:
Kar Wai Wong (story), Wong Kar Wai 

Stars:
Zhang Ziyi, Tony Leung Chiu Wai, Chen Chang 

Synopsis:
The story of martial-arts master Ip Man, the man who trained Bruce Lee.

Trivia:
Official Selection Berlin Film Festival 2013

IMDB: 
http://www.imdb.com/title/tt1462900/?ref_=fn_al_tt_1

Trailer: 
http://www.bandes-annonces.fr/film-2013/bande-annonce-thegrandmaster.html

Media Info:

Geral
Complete name                            : The.Grandmaster.2013.BRRip.x264.HORiZON-ArtSubs
Format                                   : Matroska
Format version                           : Version 4 / Version 2
File size                                : 2.19 GiB
Duration                                 : 2h 10mn
Overall bit rate                         : 2 406 Kbps

Vídeo
ID                                       : 1
Format                                   : AVC
Format/Info                              : Advanced Video Codec
Format profile                           : High@L3.1
Format settings, CABAC                   : Sim
Format settings, ReFrames                : 9 quadros
Codec ID                                 : V_MPEG4/ISO/AVC
Duration                                 : 2h 10mn
Bit rate                                 : 1 500 Kbps
Width                                    : 720 pixels
Height                                   : 304 pixels
Display aspect ratio                     : 2.35:1
Frame rate mode                          : TConstante
Frame rate                               : 24.000 fps
Color space                              : YUV
Chroma subsampling                       : 4:2:0
Bit depth                                : 8 bits
Scan type                                : Progressivo
Bits/(Pixel*Frame)                       : 0.286
Stream size                              : 1.33 GiB (61%)
Writing library                          : x264 core 130 r2273 b3065e6
Encoding settings                        : cabac=1 / ref=9 / deblock=1:-1:-1 / analyse=0x3:0x133 / me=umh / subme=10 / psy=1 / psy_rd=1.00:0.15 / mixed_ref=1 / me_range=24 / chroma_me=1 / trellis=2 / 8x8dct=1 / cqm=0 / deadzone=21,11 / fast_pskip=1 / chroma_qp_offset=-3 / threads=12 / lookahead_threads=2 / sliced_threads=0 / nr=0 / decimate=1 / interlaced=0 / bluray_compat=0 / constrained_intra=0 / bframes=7 / b_pyramid=2 / b_adapt=2 / b_bias=0 / direct=3 / weightb=1 / open_gop=0 / weightp=2 / keyint=240 / keyint_min=24 / scenecut=40 / intra_refresh=0 / rc_lookahead=60 / rc=2pass / mbtree=1 / bitrate=1500 / ratetol=1.0 / qcomp=0.60 / qpmin=0 / qpmax=69 / qpstep=4 / cplxblur=20.0 / qblur=0.5 / vbv_maxrate=17500 / vbv_bufsize=17500 / nal_hrd=none / ip_ratio=1.40 / aq=1:1.00
Default                                  : Sim
Forced                                   : Não

Áudio #1
ID                                       : 2
Format                                   : AC-3
Format/Info                              : Audio Coding 3
Mode extension                           : CM (complete main)
Format settings, Endianness              : Big
Codec ID                                 : A_AC3
Duration                                 : 2h 10mn
Bit rate mode                            : Constante
Bit rate                                 : 448 Kbps
Channel(s)                               : 6 canais
Channel positions                        : Front: L C R, Side: L R, LFE
Sampling rate                            : 48.0 KHz
Bit depth                                : 16 bits
Stream size                              : 417 MiB (19%)
Title                                    : Cantonese
Language                                 : Chinês
Default                                  : Sim
Forced                                   : Não

Áudio #2
ID                                       : 3
Format                                   : AC-3
Format/Info                              : Audio Coding 3
Mode extension                           : CM (complete main)
Format settings, Endianness              : Big
Codec ID                                 : A_AC3
Duration                                 : 2h 10mn
Bit rate mode                            : Constante
Bit rate                                 : 448 Kbps
Channel(s)                               : 6 canais
Channel positions                        : Front: L C R, Side: L R, LFE
Sampling rate                            : 48.0 KHz
Bit depth                                : 16 bits
Stream size                              : 417 MiB (19%)
Title                                    : Mandarin
Language                                 : Chinês
Default                                  : Não
Forced                                   : Não
